# 3ds Max Wavefront OBJ Exporter v0.97b - (c)2007 guruware
# 创建的文件:08.12.2015 22:20:40

mtllib file.mtl

#
# object 路灯9
#

v  52.5837 -0.0000 -1.3674
v  50.4696 -0.0000 -4.8858
v  54.5737 -0.0000 -4.9575
v  56.6878 -0.0000 -1.4391
v  50.5937 -0.0000 2.2226
v  48.4796 -0.0000 -1.2958
v  54.6978 -0.0000 2.1510
v  54.5737 820.9360 -4.9575
v  56.6878 820.9360 -1.4391
v  50.4696 820.9360 -4.8858
v  48.4796 820.9360 -1.2958
v  50.5937 820.9360 2.2226
v  54.6978 820.9360 2.1510
v  52.5837 820.9360 -1.3674
v  52.5030 800.8829 -2.1870
v  50.6326 802.1350 -2.1544
v  50.6612 802.1350 -0.5128
v  52.5316 800.8829 -0.5454
v  47.1851 804.4924 -2.0942
v  47.2138 804.4924 -0.4526
v  42.3201 807.6003 -2.0093
v  42.3488 807.6003 -0.3677
v  36.1972 811.1040 -1.9024
v  36.2259 811.1040 -0.2608
v  28.9759 814.6486 -1.7764
v  29.0046 814.6486 -0.1348
v  20.8159 817.8793 -1.6339
v  20.8445 817.8793 0.0077
v  11.8766 820.4412 -1.4779
v  11.9052 820.4412 0.1637
v  52.4424 783.5516 -2.1860
v  52.4710 783.5516 -0.5443
v  48.7359 801.6583 -1.3002
v  49.9329 803.3505 0.7315
v  44.2082 807.0454 0.8315
v  43.1091 805.2889 -1.2020
v  51.0582 805.0426 -1.3407
v  45.2357 808.8019 -1.2391
v  49.8613 803.3505 -3.3725
v  44.1366 807.0454 -3.2726
v  37.3645 810.8820 0.9509
v  36.3857 809.0576 -1.0846
v  38.2716 812.7062 -1.1176
v  37.2928 810.8820 -3.1531
v  29.4100 814.6180 1.0898
v  28.5730 812.7267 -0.9483
v  30.1754 816.5092 -0.9763
v  29.3384 814.6180 -3.0143
v  20.3531 818.0112 1.2478
v  19.6790 816.0585 -0.7930
v  20.9557 819.9638 -0.8153
v  20.2815 818.0112 -2.8562
v  10.2022 820.8196 1.4250
v  9.7104 818.8161 -0.6190
v  10.6224 822.8229 -0.6350
v  10.1306 820.8196 -2.6790
v  -1.0344 822.8008 1.6212
v  -1.3272 820.7646 -0.4264
v  -0.8132 824.8369 -0.4354
v  -1.1060 822.8008 -2.4829
v  3.8422 818.8335 -6.6746
v  -56.6878 830.0537 -5.6180
v  -55.5659 836.1077 -5.6376
v  4.9641 824.8875 -6.6941
v  -56.4728 830.0537 6.6941
v  -55.3510 836.1077 6.6745
v  4.0571 818.8335 5.6376
v  5.1790 824.8875 5.6180
v  -10.5627 819.8371 -5.3968
v  -54.9513 828.0654 -4.6220
v  -54.6522 829.6797 -4.6272
v  -10.2635 821.4515 -5.4020
v  -54.7722 828.0654 5.6381
v  -54.4731 829.6797 5.6329
v  -10.3836 819.8371 4.8633
v  -10.0844 821.4515 4.8581
# 76 vertices

vn 0.0000 -1.0000 -0.0000
vn 0.9998 0.0000 -0.0175
vn 0.4848 0.0000 -0.8746
vn -0.5150 0.0000 -0.8572
vn -0.9998 0.0000 0.0175
vn -0.4848 0.0000 0.8746
vn 0.5150 0.0000 0.8572
vn 0.0000 1.0000 -0.0000
vn 0.5561 0.8310 -0.0097
vn 0.5602 0.8283 -0.0098
vn 0.5513 0.8342 -0.0096
vn 0.5175 0.8556 -0.0090
vn 0.4688 0.8833 -0.0082
vn 0.4046 0.9145 -0.0071
vn 0.3221 0.9467 -0.0056
vn 0.2754 0.9613 -0.0048
vn -0.6726 -0.7399 0.0117
vn 0.9998 -0.0035 -0.0175
vn -0.0175 -0.0000 -0.9998
vn 0.0175 0.0000 0.9998
vn -0.5421 -0.8403 0.0095
vn 0.0244 0.0107 0.9996
vn 0.0247 0.0120 0.9996
vn -0.5157 -0.8567 0.0090
vn 0.5422 0.8402 -0.0095
vn 0.5158 0.8566 -0.0090
vn -0.0105 0.0107 -0.9999
vn -0.0102 0.0120 -0.9999
vn 0.0248 0.0144 0.9996
vn -0.4572 -0.8893 0.0080
vn 0.4573 0.8893 -0.0080
vn -0.0101 0.0144 -0.9998
vn 0.0245 0.0167 0.9996
vn -0.3881 -0.9216 0.0068
vn 0.3882 0.9215 -0.0068
vn -0.0104 0.0167 -0.9998
vn 0.0236 0.0189 0.9995
vn -0.3089 -0.9511 0.0054
vn 0.3090 0.9510 -0.0054
vn -0.0113 0.0190 -0.9998
vn 0.0221 0.0210 0.9995
vn -0.2203 -0.9754 0.0038
vn 0.2203 0.9754 -0.0038
vn -0.0128 0.0209 -0.9997
vn 0.0212 0.0218 0.9995
vn -0.1737 -0.9848 0.0030
vn 0.1735 0.9848 -0.0030
vn -0.0137 0.0217 -0.9997
vn 0.8244 -0.5659 -0.0144
vn 0.8244 -0.5658 -0.0144
vn -0.9920 0.1253 0.0173
vn -0.0175 0.0000 -0.9998
vn -0.9831 0.1822 0.0172
vn 0.9831 -0.1822 -0.0172
vn -0.1822 -0.9833 0.0032
vn 0.1822 0.9833 -0.0032
# 56 vertex normals

g 路灯9
usemtl 交通设施52
s 1
f 1//1 2//1 3//1 4//1 
f 1//1 5//1 6//1 2//1 
f 1//1 4//1 7//1 5//1 
s 8
f 4//2 3//3 8//3 9//2 
f 3//3 2//4 10//4 8//3 
f 2//4 6//5 11//5 10//4 
f 6//5 5//6 12//6 11//5 
f 5//6 7//7 13//7 12//6 
f 7//7 4//2 9//2 13//7 
s 1
f 14//8 13//8 9//8 8//8 
f 14//8 8//8 10//8 11//8 
f 14//8 11//8 12//8 13//8 
f 15//9 16//10 17//10 18//9 
s 3
f 16//10 19//11 20//11 17//10 
s 2
f 19//11 21//12 22//12 20//11 
f 21//12 23//13 24//13 22//12 
f 23//13 25//14 26//14 24//13 
f 25//14 27//15 28//15 26//14 
f 27//15 29//16 30//16 28//15 
s 4
f 29//17 31//17 32//17 30//17 
s 2
f 31//18 15//18 18//18 32//18 
s 16
f 27//19 25//19 31//19 29//19 
f 23//19 21//19 31//19 25//19 
f 21//19 16//19 15//19 31//19 
f 19//19 16//19 21//19 
f 28//20 30//20 32//20 26//20 
f 24//20 26//20 32//20 22//20 
f 22//20 32//20 18//20 17//20 
f 20//20 22//20 17//20 
s 2305
f 33//21 34//22 35//23 36//24 
s 4611
f 34//22 37//25 38//26 35//23 
s 9218
f 37//25 39//27 40//28 38//26 
s 4611
f 39//27 33//21 36//24 40//28 
s 2312
f 36//24 35//23 41//29 42//30 
s 4632
f 35//23 38//26 43//31 41//29 
s 9232
f 38//26 40//28 44//32 43//31 
s 4632
f 40//28 36//24 42//30 44//32 
s 2305
f 42//30 41//29 45//33 46//34 
s 4611
f 41//29 43//31 47//35 45//33 
s 9218
f 43//31 44//32 48//36 47//35 
s 4611
f 44//32 42//30 46//34 48//36 
s 2312
f 46//34 45//33 49//37 50//38 
s 4632
f 45//33 47//35 51//39 49//37 
s 9232
f 47//35 48//36 52//40 51//39 
s 4632
f 48//36 46//34 50//38 52//40 
s 2305
f 50//38 49//37 53//41 54//42 
s 4611
f 49//37 51//39 55//43 53//41 
s 9218
f 51//39 52//40 56//44 55//43 
s 4611
f 52//40 50//38 54//42 56//44 
s 2312
f 54//42 53//41 57//45 58//46 
s 4632
f 53//41 55//43 59//47 57//45 
s 9232
f 55//43 56//44 60//48 59//47 
s 4632
f 56//44 54//42 58//46 60//48 
s 2147483648
f 34//49 33//50 39//49 37//49 
f 57//51 59//51 60//51 58//51 
s 1
f 61//52 62//52 63//52 64//52 
s 4
f 62//53 65//53 66//53 63//53 
s 2
f 65//20 67//20 68//20 66//20 
s 4
f 67//54 61//54 64//54 68//54 
s 16
f 65//55 62//55 61//55 67//55 
f 66//56 68//56 64//56 63//56 
usemtl Material__1
s 1
f 69//52 70//52 71//52 72//52 
s 4
f 70//53 73//53 74//53 71//53 
s 2
f 73//20 75//20 76//20 74//20 
s 4
f 75//54 69//54 72//54 76//54 
s 16
f 73//55 70//55 69//55 75//55 
f 74//56 76//56 72//56 71//56 
# 65 polygons - 2 triangles

