# 3ds Max Wavefront OBJ Exporter v0.97b - (c)2007 guruware
# 创建的文件:26.11.2015 19:31:38

mtllib file.mtl

#
# object Box01
#

v  73.5194 56.2308 -41.8023
v  73.5194 56.2308 -90.8231
v  -56.6871 56.2308 -90.8232
v  -56.6871 56.2308 -41.8023
v  82.0079 36.8631 -33.8131
v  82.0079 29.3149 -33.8131
v  82.0079 29.3149 -98.8123
v  82.0079 36.8631 -98.8123
v  -65.1757 29.3149 -98.8123
v  -65.1757 36.8631 -98.8123
v  -65.1757 29.3149 -33.8132
v  -65.1757 36.8631 -33.8132
v  -63.7615 51.6508 -35.2274
v  80.5937 51.6508 -35.2273
v  82.5196 51.7508 -34.3192
v  -65.6874 51.7508 -34.3193
v  80.5937 51.6508 -97.3981
v  82.5196 51.7508 -98.3061
v  -63.7614 51.6508 -97.3981
v  -65.6874 51.7508 -98.3062
v  82.5196 59.7508 -34.3192
v  -65.6874 59.7508 -34.3193
v  82.5196 59.7509 -98.3061
v  -65.6874 59.7509 -98.3062
v  80.5937 36.8631 -35.2273
v  80.5937 36.8631 -97.3981
v  -63.7614 36.8631 -97.3981
v  -63.7614 0.0000 -97.3981
v  -63.7614 29.3149 -97.3981
v  80.5937 29.3149 -97.3981
v  80.5937 0.0000 -97.3981
v  -63.7615 36.8631 -35.2274
v  -63.7615 0.0000 -35.2274
v  -63.7615 29.3149 -35.2274
v  80.5937 29.3149 -35.2273
v  73.5194 59.7508 -41.8023
v  -56.6871 59.7508 -41.8023
v  73.5194 59.7509 -90.8231
v  -56.6871 59.7509 -90.8232
v  80.5937 28.8425 -69.0770
v  80.5937 0.0000 -69.0770
v  79.7429 0.0000 -69.0770
v  79.7429 28.8425 -69.0770
v  79.7429 28.8425 -85.7046
v  79.7429 0.0000 -85.7046
v  80.5937 28.8425 -85.7046
v  80.5937 0.0000 -85.7046
v  45.9832 28.8425 -36.2540
v  45.9832 28.8425 -35.2273
v  45.9832 0.0000 -35.2273
v  45.9832 0.0000 -36.2540
v  62.6108 28.8425 -36.2540
v  62.6108 0.0000 -36.2540
v  62.6108 28.8425 -35.2273
v  62.6108 0.0000 -35.2273
v  4.4659 28.8425 -36.2540
v  4.4659 28.8425 -35.2273
v  4.4659 8.6919 -35.2273
v  4.4659 8.6919 -36.2540
v  39.7818 8.6919 -35.2273
v  39.7818 8.6919 -36.2540
v  39.7818 28.8425 -35.2273
v  39.7818 28.8425 -36.2540
v  -9.8414 29.3149 -33.8131
v  -9.8414 29.3149 -35.2273
v  -9.8414 36.8631 -33.8131
v  -51.1807 0.0000 -35.2274
v  -51.1807 29.3149 -35.2274
v  -51.1807 29.3149 -33.8131
v  -51.1807 36.8631 -33.8131
v  -9.8414 36.8630 -37.7298
v  -51.1807 36.8630 -37.7298
v  -51.1807 0.0000 -37.7298
v  -9.8414 0.0000 -37.7298
v  -26.5763 36.8631 -35.2274
v  -51.1807 36.8631 -35.2274
v  -9.8414 36.8631 -35.2274
v  80.5937 0.0000 -35.2273
v  -9.8414 0.0000 -35.2273
v  -60.7707 70.5404 98.8123
v  -55.6367 70.5404 98.8123
v  -55.6367 70.5404 95.7599
v  -60.7707 70.5404 95.7599
v  -60.7707 0.0000 98.8123
v  -55.6367 0.0000 98.8123
v  -55.6367 0.0000 95.7599
v  -60.7707 0.0000 95.7599
v  -86.9454 70.5404 98.8123
v  -81.8114 70.5404 98.8123
v  -81.8114 70.5404 95.7599
v  -86.9454 70.5404 95.7599
v  -86.9454 0.0000 98.8123
v  -81.8114 0.0000 98.8123
v  -81.8114 0.0000 95.7599
v  -86.9454 0.0000 95.7599
v  8.7814 0.0000 0.1545
v  13.9154 0.0000 0.1545
v  13.9154 56.1214 0.1545
v  8.7814 56.1214 0.1545
v  13.9154 0.0000 -2.8979
v  13.9154 56.1214 -2.8979
v  8.7814 0.0000 -2.8979
v  8.7814 56.1214 -2.8979
v  -14.2217 51.7489 64.7189
v  -14.2217 51.7489 -16.4105
v  -11.3632 51.7489 -19.1016
v  86.9454 51.7489 -16.4105
v  84.0868 51.7489 -19.1015
v  86.9453 51.7489 64.7190
v  84.0868 51.7489 67.4100
v  -11.3632 51.7489 67.4100
v  -11.3632 59.7593 67.4100
v  84.0868 59.7593 67.4100
v  86.9453 59.7593 64.7190
v  84.0868 59.7593 -19.1015
v  86.9454 59.7593 -16.4105
v  -11.3632 59.7593 -19.1016
v  -14.2217 59.7593 -16.4105
v  -14.2217 59.7593 64.7189
v  61.9981 0.0000 0.1545
v  67.1321 0.0000 0.1545
v  67.1321 56.1214 0.1545
v  61.9981 56.1214 0.1545
v  67.1321 0.0000 -2.8979
v  67.1321 56.1214 -2.8979
v  61.9981 0.0000 -2.8979
v  61.9981 56.1214 -2.8979
v  8.7814 0.0000 42.7440
v  13.9154 0.0000 42.7440
v  13.9154 56.1214 42.7440
v  8.7814 56.1214 42.7440
v  13.9154 0.0000 39.6917
v  13.9154 56.1214 39.6917
v  8.7814 0.0000 39.6917
v  8.7814 56.1214 39.6917
v  61.9981 0.0000 42.7441
v  67.1321 0.0000 42.7441
v  67.1321 56.1214 42.7441
v  61.9981 56.1214 42.7441
v  67.1321 0.0000 39.6917
v  67.1321 56.1214 39.6917
v  61.9981 0.0000 39.6917
v  61.9981 56.1214 39.6917
v  -82.0535 45.8614 97.7294
v  -82.0535 45.8614 96.6296
v  -60.5415 45.8614 96.6296
v  -60.5415 45.8614 97.7294
v  -82.0535 67.7580 97.7294
v  -60.5415 67.7580 97.7294
v  -60.5415 67.7580 96.6296
v  -82.0535 67.7580 96.6296
v  67.7103 22.3745 45.0263
v  79.0264 22.3745 45.0263
v  79.0264 22.3745 39.6832
v  67.7103 22.3745 39.6832
v  69.3603 15.2067 43.8990
v  77.3763 15.2067 43.8990
v  77.3763 20.7244 43.8990
v  69.3603 20.7244 43.8990
v  79.0264 0.0000 45.0263
v  79.0264 0.0000 39.6832
v  67.7103 0.0000 39.6832
v  67.7103 0.0000 45.0263
v  77.3763 15.2067 45.0263
v  69.3603 15.2067 45.0263
v  77.3764 20.7244 45.0263
v  69.3603 20.7244 45.0263
v  78.9655 3.9006 42.2432
v  85.6457 3.9006 42.2432
v  85.6457 19.4877 42.2432
v  78.9655 19.4877 42.2432
v  14.4485 22.3745 45.0263
v  25.7647 22.3745 45.0263
v  25.7647 22.3745 39.6832
v  14.4485 22.3745 39.6832
v  16.0986 15.2067 43.8990
v  24.1146 15.2067 43.8990
v  24.1146 20.7244 43.8990
v  16.0986 20.7244 43.8990
v  25.7647 0.0000 45.0263
v  25.7647 0.0000 39.6832
v  14.4485 0.0000 39.6832
v  14.4485 0.0000 45.0263
v  24.1146 15.2067 45.0263
v  16.0986 15.2067 45.0263
v  24.1146 20.7244 45.0263
v  16.0986 20.7244 45.0263
v  25.7038 3.9006 42.2431
v  32.3839 3.9006 42.2431
v  32.3839 19.4877 42.2431
v  25.7038 19.4877 42.2431
v  14.4485 22.3745 2.4404
v  25.7647 22.3745 2.4404
v  25.7647 22.3745 -2.9028
v  14.4485 22.3745 -2.9028
v  16.0986 15.2067 1.3130
v  24.1146 15.2067 1.3130
v  24.1146 20.7244 1.3130
v  16.0986 20.7244 1.3130
v  25.7647 0.0000 2.4404
v  25.7647 0.0000 -2.9028
v  14.4485 0.0000 -2.9028
v  14.4485 0.0000 2.4404
v  24.1146 15.2067 2.4404
v  16.0986 15.2067 2.4404
v  24.1146 20.7244 2.4404
v  16.0986 20.7244 2.4404
v  25.7038 3.9006 -0.3428
v  32.3839 3.9006 -0.3428
v  32.3839 19.4877 -0.3428
v  25.7038 19.4877 -0.3428
v  67.7103 22.3745 2.4404
v  79.0265 22.3745 2.4404
v  79.0265 22.3745 -2.9028
v  67.7103 22.3745 -2.9028
v  69.3603 15.2067 1.3130
v  77.3764 15.2067 1.3130
v  77.3764 20.7244 1.3130
v  69.3603 20.7244 1.3130
v  79.0265 0.0000 2.4404
v  79.0265 0.0000 -2.9028
v  67.7103 0.0000 -2.9028
v  67.7103 0.0000 2.4404
v  77.3764 15.2067 2.4404
v  69.3603 15.2067 2.4404
v  77.3764 20.7244 2.4404
v  69.3603 20.7244 2.4404
v  78.9655 3.9006 -0.3428
v  85.6457 3.9006 -0.3428
v  85.6457 19.4877 -0.3428
v  78.9655 19.4877 -0.3428
v  64.6032 0.0000 -26.5539
v  64.6032 0.0000 -34.8643
v  79.8836 0.0000 -34.8643
v  79.8836 0.0000 -26.5539
v  64.6032 25.0653 -26.5539
v  79.8836 25.0653 -26.5539
v  79.8836 25.0653 -34.8643
v  64.6032 25.0653 -34.8643
v  54.2096 49.8198 55.6329
v  54.2096 49.8198 52.3871
v  57.9424 49.8198 52.3871
v  57.9423 49.8198 55.6329
v  58.3577 51.6674 55.9941
v  53.7943 51.6674 55.9941
v  58.3577 51.6674 52.0260
v  53.7943 51.6674 52.0260
v  17.5019 49.8198 55.6329
v  17.5019 49.8198 52.3871
v  21.2346 49.8198 52.3871
v  21.2346 49.8198 55.6329
v  21.6499 51.6674 55.9941
v  17.0866 51.6674 55.9941
v  21.6499 51.6674 52.0260
v  17.0866 51.6674 52.0260
v  17.5019 49.8198 26.2555
v  17.5019 49.8198 23.0097
v  21.2346 49.8198 23.0097
v  21.2346 49.8198 26.2555
v  21.6499 51.6674 26.6166
v  17.0866 51.6674 26.6166
v  21.6499 51.6674 22.6485
v  17.0866 51.6674 22.6485
v  54.2096 49.8198 26.2555
v  54.2096 49.8198 23.0097
v  57.9424 49.8198 23.0097
v  57.9424 49.8198 26.2555
v  58.3577 51.6674 26.6167
v  53.7943 51.6674 26.6167
v  58.3577 51.6674 22.6485
v  53.7943 51.6674 22.6485
v  54.2097 49.8198 -4.4937
v  54.2097 49.8198 -7.7396
v  57.9424 49.8198 -7.7396
v  57.9424 49.8198 -4.4937
v  58.3577 51.6674 -4.1326
v  53.7943 51.6674 -4.1326
v  58.3577 51.6674 -8.1007
v  53.7943 51.6674 -8.1007
v  17.5019 49.8198 -4.4937
v  17.5019 49.8198 -7.7396
v  21.2346 49.8198 -7.7396
v  21.2346 49.8198 -4.4937
v  21.6499 51.6674 -4.1326
v  17.0866 51.6674 -4.1326
v  21.6499 51.6674 -8.1007
v  17.0866 51.6674 -8.1007
# 287 vertices

vn 0.0000 1.0000 -0.0000
vn 1.0000 0.0000 0.0000
vn 0.0000 0.0000 -1.0000
vn -1.0000 0.0000 -0.0000
vn -0.0000 -0.9940 0.1095
vn 0.0519 -0.9987 0.0000
vn 0.0000 -0.9940 -0.1095
vn -0.0519 -0.9987 -0.0000
vn -0.0000 0.0000 1.0000
vn 0.0000 -1.0000 0.0000
vn -0.0000 1.0000 0.0000
vn 0.0000 -1.0000 -0.0000
vn -0.0000 -0.0000 1.0000
vn -0.0000 -1.0000 0.0000
vn 0.6855 0.0000 0.7281
vn -0.6855 0.0000 0.7281
vn 0.6855 0.0000 -0.7281
vn -0.6855 0.0000 -0.7281
vn 0.0000 0.0000 1.0000
vn -1.0000 0.0000 0.0000
vn -0.0000 -0.1918 0.9814
vn 0.9757 -0.2193 0.0000
vn 0.0000 -0.1918 -0.9814
vn -0.9757 -0.2193 -0.0000
# 24 vertex normals

vt 0.0260 0.3354 0.0000
vt 0.0260 0.1353 0.0000
vt 0.5576 0.1353 0.0000
vt 0.5576 0.3354 0.0000
vt 0.9873 0.7813 0.0000
vt 0.9482 0.7813 0.0000
vt 0.9482 0.4444 0.0000
vt 0.9873 0.4444 0.0000
vt 0.9482 0.0184 0.0000
vt 0.9873 0.0184 0.0000
vt 0.6655 0.5023 0.0000
vt 0.0138 0.5023 0.0000
vt 0.0051 0.4982 0.0000
vt 0.6742 0.4982 0.0000
vt 0.0138 0.7830 0.0000
vt 0.0051 0.7871 0.0000
vt 0.6655 0.7830 0.0000
vt 0.6742 0.7871 0.0000
vt 0.9482 0.0185 0.0000
vt 0.9873 0.0185 0.0000
vt 0.9873 0.7814 0.0000
vt 0.9482 0.7814 0.0000
vt 0.4290 0.8935 0.0000
vt 0.4290 0.9945 0.0000
vt 0.0046 0.9945 0.0000
vt 0.0046 0.8935 0.0000
vt 0.9901 0.7944 0.0000
vt 0.9901 0.8953 0.0000
vt 0.0046 0.8953 0.0000
vt 0.0046 0.7944 0.0000
vt 0.9901 0.9945 0.0000
vt 0.4290 0.7944 0.0000
vt 0.0209 0.7783 0.0000
vt 0.0209 0.5057 0.0000
vt 0.0147 0.4995 0.0000
vt 0.0147 0.7845 0.0000
vt 0.0459 0.7530 0.0000
vt 0.6338 0.7530 0.0000
vt 0.0459 0.5316 0.0000
vt 0.6338 0.5316 0.0000
vt 0.0778 0.7715 0.0000
vt 0.0778 0.7571 0.0000
vt 0.6094 0.7571 0.0000
vt 0.6094 0.7715 0.0000
vt 0.0264 0.5421 0.0000
vt 0.0408 0.5421 0.0000
vt 0.0408 0.7423 0.0000
vt 0.0264 0.7423 0.0000
vt 0.6316 0.5119 0.0000
vt 0.6316 0.5263 0.0000
vt 0.0999 0.5263 0.0000
vt 0.0999 0.5119 0.0000
vt 0.6533 0.7264 0.0000
vt 0.6390 0.7264 0.0000
vt 0.6390 0.5263 0.0000
vt 0.6533 0.5263 0.0000
vt 0.7028 0.3522 0.0000
vt 0.7028 0.1724 0.0000
vt 0.7092 0.1724 0.0000
vt 0.7092 0.3522 0.0000
vt 0.8129 0.3522 0.0000
vt 0.8129 0.1724 0.0000
vt 0.8193 0.3522 0.0000
vt 0.8193 0.1724 0.0000
vt 0.8129 0.3586 0.0000
vt 0.7092 0.3586 0.0000
vt 0.3051 0.5815 0.0000
vt 0.3116 0.5815 0.0000
vt 0.3116 0.7101 0.0000
vt 0.3051 0.7101 0.0000
vt 0.3051 0.7166 0.0000
vt 0.0797 0.7166 0.0000
vt 0.0797 0.7101 0.0000
vt 0.0732 0.7101 0.0000
vt 0.0732 0.5815 0.0000
vt 0.0797 0.5815 0.0000
vt 0.0797 0.5749 0.0000
vt 0.3051 0.5749 0.0000
vt 0.4174 0.7845 0.0000
vt 0.4174 0.7783 0.0000
vt 0.9873 0.4945 0.0000
vt 0.9482 0.4945 0.0000
vt 0.9042 0.9945 0.0000
vt 0.9042 0.7944 0.0000
vt 0.5986 0.7845 0.0000
vt 0.6599 0.7845 0.0000
vt 0.6537 0.7783 0.0000
vt 0.5986 0.7783 0.0000
vt 0.9482 0.4319 0.0000
vt 0.9873 0.4319 0.0000
vt 0.9873 0.5044 0.0000
vt 0.9482 0.5044 0.0000
vt 0.5872 0.7316 0.0000
vt 0.3709 0.7316 0.0000
vt 0.3709 0.5388 0.0000
vt 0.5872 0.5388 0.0000
vt 0.4997 0.7447 0.0000
vt 0.3709 0.7447 0.0000
vt 0.5872 0.7447 0.0000
vt 0.6220 0.8953 0.0000
vt 0.7362 0.8953 0.0000
vt 0.9042 0.8953 0.0000
vt 0.6537 0.5057 0.0000
vt 0.6599 0.4995 0.0000
vt 0.5656 0.7944 0.0000
vt 0.7967 0.7944 0.0000
vt 0.7967 0.9913 0.0000
vt 0.5656 0.9945 0.0000
vt 0.9102 0.9913 0.0000
vt 0.9102 0.7944 0.0000
vt 0.1022 0.9913 0.0000
vt 0.3433 0.9913 0.0000
vt 0.3857 0.9913 0.0000
vt 0.6220 0.9945 0.0000
vt 0.1022 0.8537 0.0000
vt 0.3433 0.8537 0.0000
vt 0.3857 0.7944 0.0000
vt 0.4992 0.9913 0.0000
vt 0.4992 0.7944 0.0000
vt 0.6220 0.7944 0.0000
vt 0.3578 0.6922 0.0000
vt 0.3578 0.5388 0.0000
vt 0.3578 0.7316 0.0000
vt 0.3504 0.7316 0.0000
vt 0.3504 0.6922 0.0000
vt 0.6003 0.5388 0.0000
vt 0.6003 0.6922 0.0000
vt 0.6003 0.7316 0.0000
vt 0.6077 0.7316 0.0000
vt 0.6077 0.6922 0.0000
vt 0.5813 0.4656 0.0000
vt 0.6150 0.4656 0.0000
vt 0.6150 0.4856 0.0000
vt 0.5813 0.4856 0.0000
vt 0.5813 0.0027 0.0000
vt 0.6150 0.0027 0.0000
vt 0.6350 0.0027 0.0000
vt 0.6350 0.4656 0.0000
vt 0.6687 0.0027 0.0000
vt 0.6687 0.4656 0.0000
vt 0.6887 0.0027 0.0000
vt 0.6887 0.4656 0.0000
vt 0.5743 0.0183 0.0000
vt 0.5743 0.4725 0.0000
vt 0.5583 0.4875 0.0000
vt 0.0080 0.4725 0.0000
vt 0.0240 0.4875 0.0000
vt 0.0080 0.0183 0.0000
vt 0.0240 0.0033 0.0000
vt 0.5583 0.0033 0.0000
vt 0.9483 0.4814 0.0000
vt 0.9483 0.0189 0.0000
vt 0.9872 0.0189 0.0000
vt 0.9872 0.4814 0.0000
vt 0.9483 0.0206 0.0000
vt 0.9872 0.0206 0.0000
vt 0.9872 0.5108 0.0000
vt 0.9483 0.5108 0.0000
vt 0.8808 0.0079 0.0000
vt 0.8706 0.0079 0.0000
vt 0.8706 0.1647 0.0000
vt 0.8808 0.1647 0.0000
vt 0.7008 0.0079 0.0000
vt 0.7008 0.1647 0.0000
vt 0.7109 0.1647 0.0000
vt 0.7109 0.0079 0.0000
vt 0.7352 0.7262 0.0000
vt 0.8125 0.7262 0.0000
vt 0.8125 0.7627 0.0000
vt 0.7352 0.7627 0.0000
vt 0.8852 0.7816 0.0000
vt 0.8304 0.7816 0.0000
vt 0.8304 0.7440 0.0000
vt 0.8852 0.7440 0.0000
vt 0.8125 0.5733 0.0000
vt 0.8490 0.5733 0.0000
vt 0.8490 0.7262 0.0000
vt 0.9263 0.5733 0.0000
vt 0.9263 0.7262 0.0000
vt 0.6987 0.5733 0.0000
vt 0.7352 0.5733 0.0000
vt 0.6987 0.7262 0.0000
vt 0.8012 0.6772 0.0000
vt 0.7464 0.6772 0.0000
vt 0.8012 0.7149 0.0000
vt 0.7464 0.7149 0.0000
vt 0.8852 0.7893 0.0000
vt 0.8304 0.7893 0.0000
vt 0.8227 0.7816 0.0000
vt 0.8227 0.7440 0.0000
vt 0.8304 0.7363 0.0000
vt 0.8852 0.7363 0.0000
vt 0.8929 0.7440 0.0000
vt 0.8929 0.7816 0.0000
vt 0.8248 0.3387 0.0000
vt 0.8248 0.2870 0.0000
vt 0.9454 0.2870 0.0000
vt 0.9454 0.3387 0.0000
vt 0.8978 0.3989 0.0000
vt 0.8978 0.3564 0.0000
vt 0.8197 0.3564 0.0000
vt 0.8197 0.3989 0.0000
vt 0.8978 0.5270 0.0000
vt 0.8197 0.5270 0.0000
vt 0.8197 0.5695 0.0000
vt 0.8978 0.5695 0.0000
vt 0.7772 0.3989 0.0000
vt 0.7772 0.5270 0.0000
vt 0.6991 0.3989 0.0000
vt 0.6991 0.5270 0.0000
vt 0.9403 0.3989 0.0000
vt 0.9403 0.5270 0.0000
vt 0.9176 0.1934 0.0000
vt 0.9176 0.2523 0.0000
vt 0.8499 0.2523 0.0000
vt 0.8499 0.1934 0.0000
vt 0.8290 0.1731 0.0000
vt 0.9385 0.1731 0.0000
vt 0.8290 0.2726 0.0000
vt 0.9385 0.2726 0.0000
# 220 texture coords

g Box01
usemtl 01___Default
s 4
f 1/1/1 2/2/1 3/3/1 4/4/1 
s 16
f 5/5/2 6/6/2 7/7/2 8/8/2 
s 32
f 8/5/3 7/6/3 9/9/3 10/10/3 
s 64
f 10/5/4 9/6/4 11/7/4 12/8/4 
s off
f 13/11/5 14/12/5 15/13/5 16/14/5 
f 14/12/6 17/15/6 18/16/6 15/13/6 
f 17/15/7 19/17/7 20/18/7 18/16/7 
f 19/17/8 13/11/8 16/14/8 20/18/8 
f 15/19/9 21/20/9 22/21/9 16/22/9 
f 18/7/2 23/8/2 21/5/2 15/6/2 
f 20/9/3 24/10/3 23/5/3 18/6/3 
f 16/7/4 22/8/4 24/5/4 20/6/4 
s 16
f 14/23/2 25/24/2 26/25/2 17/26/2 
s 32
f 17/27/3 26/28/3 27/29/3 19/30/3 
f 28/25/3 29/30/3 30/27/3 31/31/3 
s 64
f 19/23/4 27/24/4 32/25/4 13/26/4 
f 33/25/4 34/30/4 29/32/4 28/24/4 
s off
f 35/33/10 30/34/10 7/35/10 6/36/10 
f 22/18/1 21/16/1 36/37/1 37/38/1 
f 38/39/11 36/37/11 21/16/11 23/13/11 
f 23/13/1 24/14/1 39/40/1 38/39/1 
f 37/38/11 39/40/11 24/14/11 22/18/11 
f 36/41/3 1/42/3 4/43/3 37/44/3 
f 38/45/4 2/46/4 1/47/4 36/48/4 
f 39/49/9 3/50/9 2/51/9 38/52/9 
f 37/53/2 4/54/2 3/55/2 39/56/2 
s 1
f 40/57/3 41/58/3 42/59/3 43/60/3 
s 4
f 44/61/2 43/60/2 42/59/2 45/62/2 
s 1
f 46/63/9 44/61/9 45/62/9 47/64/9 
s 2
f 46/65/12 40/66/12 43/60/12 44/61/12 
s 1
f 48/60/2 49/57/2 50/58/2 51/59/2 
s 4
f 52/61/9 48/60/9 51/59/9 53/62/9 
s 1
f 54/63/4 52/61/4 53/62/4 55/64/4 
s 2
f 52/61/12 54/65/12 49/66/12 48/60/12 
s 1
f 56/67/2 57/68/2 58/69/2 59/70/2 
s 4
f 59/70/1 58/71/1 60/72/1 61/73/1 
s 1
f 61/73/4 60/74/4 62/75/4 63/76/4 
s 2
f 61/73/9 63/76/9 56/67/9 59/70/9 
s 4
f 63/76/12 62/77/12 57/78/12 56/67/12 
s off
f 64/79/12 65/80/12 35/33/12 6/36/12 
s 8
f 66/81/9 64/82/9 6/9/9 5/10/9 
f 34/83/13 33/84/13 67/27/13 68/31/13 
s off
f 69/85/12 11/86/12 34/87/12 68/88/12 
s 8
f 69/89/9 70/90/9 12/91/9 11/92/9 
s 4
f 71/93/9 72/94/9 73/95/9 74/96/9 
s 2
f 75/97/14 76/98/14 72/94/14 71/93/14 
f 77/99/14 75/97/14 71/93/14 
s 8
f 77/100/13 25/29/13 14/30/13 75/101/13 
f 76/102/13 75/101/13 14/30/13 13/27/13 
f 76/102/13 13/27/13 32/28/13 
s off
f 7/35/12 30/34/12 29/103/12 9/104/12 
f 9/104/12 29/103/12 34/87/12 11/86/12 
s 16
f 78/105/2 41/106/2 40/107/2 35/108/2 
f 35/108/2 40/107/2 46/109/2 30/31/2 
f 30/31/2 46/109/2 47/110/2 31/27/2 
s 8
f 57/111/13 62/112/13 49/113/13 35/114/13 
f 57/111/13 35/114/13 65/25/13 58/115/13 
f 58/115/13 65/25/13 79/30/13 60/116/13 
f 60/116/13 79/30/13 50/117/13 49/113/13 
f 54/118/13 55/119/13 78/120/13 35/114/13 
f 49/113/13 54/118/13 35/114/13 
f 60/116/13 49/113/13 62/112/13 
s off
f 25/33/1 77/80/1 66/79/1 5/36/1 
f 26/34/1 25/33/1 5/36/1 8/35/1 
f 27/103/1 26/34/1 8/35/1 10/104/1 
f 32/87/1 27/103/1 10/104/1 12/86/1 
f 32/87/1 12/86/1 70/85/1 76/88/1 
s 1
f 68/121/2 67/122/2 73/95/2 72/94/2 
f 68/121/2 72/94/2 76/123/2 70/124/2 
f 68/121/2 70/124/2 69/125/2 
f 74/96/4 79/126/4 65/127/4 71/93/4 
f 77/128/4 71/93/4 65/127/4 66/129/4 
f 66/129/4 65/127/4 64/130/4 
s 4
f 80/131/1 81/132/1 82/133/1 83/134/1 
s 8
f 84/135/9 85/136/9 81/132/9 80/131/9 
s 16
f 85/136/2 86/137/2 82/138/2 81/132/2 
s 32
f 86/137/3 87/139/3 83/140/3 82/138/3 
s 64
f 87/139/4 84/141/4 80/142/4 83/140/4 
s 4
f 88/131/1 89/132/1 90/133/1 91/134/1 
s 8
f 92/135/9 93/136/9 89/132/9 88/131/9 
s 16
f 93/136/2 94/137/2 90/138/2 89/132/2 
s 32
f 94/137/3 95/139/3 91/140/3 90/138/3 
s 64
f 95/139/4 92/141/4 88/142/4 91/140/4 
s 8
f 96/135/9 97/136/9 98/132/9 99/131/9 
s 16
f 97/136/2 100/137/2 101/138/2 98/132/2 
s 32
f 100/137/3 102/139/3 103/140/3 101/138/3 
s 64
f 102/139/4 96/141/4 99/142/4 103/140/4 
s 2
f 104/143/12 105/144/12 106/145/12 107/146/12 
f 106/145/12 108/147/12 107/146/12 
f 107/146/12 109/148/12 110/149/12 104/143/12 
f 111/150/12 104/143/12 110/149/12 
s 4
f 112/145/1 113/147/1 114/146/1 115/149/1 
f 114/146/1 116/148/1 115/149/1 
f 115/149/1 117/150/1 118/143/1 112/145/1 
f 119/144/1 112/145/1 118/143/1 
s 8
f 111/151/9 110/152/9 113/153/9 112/154/9 
s 16
f 109/151/2 107/152/2 116/153/2 114/154/2 
s 32
f 108/151/3 106/152/3 117/153/3 115/154/3 
s 64
f 105/151/4 104/152/4 119/153/4 118/154/4 
s off
f 110/152/15 109/155/15 114/156/15 113/153/15 
f 112/154/16 119/157/16 104/158/16 111/151/16 
f 107/158/17 108/151/17 115/154/17 116/157/17 
f 106/152/18 105/155/18 118/156/18 117/153/18 
s 8
f 120/135/9 121/136/9 122/132/9 123/131/9 
s 16
f 121/136/2 124/137/2 125/138/2 122/132/2 
s 32
f 124/137/3 126/139/3 127/140/3 125/138/3 
s 64
f 126/139/4 120/141/4 123/142/4 127/140/4 
s 8
f 128/135/9 129/136/9 130/132/9 131/131/9 
s 16
f 129/136/2 132/137/2 133/138/2 130/132/2 
s 32
f 132/137/3 134/139/3 135/140/3 133/138/3 
s 64
f 134/139/4 128/141/4 131/142/4 135/140/4 
s 8
f 136/135/9 137/136/9 138/132/9 139/131/9 
s 16
f 137/136/2 140/137/2 141/138/2 138/132/2 
s 32
f 140/137/3 142/139/3 143/140/3 141/138/3 
s 64
f 142/139/4 136/141/4 139/142/4 143/140/4 
s 2
f 144/159/12 145/160/12 146/161/12 147/162/12 
s 4
f 148/163/1 149/164/1 150/165/1 151/166/1 
s 8
f 144/160/9 147/161/9 149/165/9 148/166/9 
s 32
f 146/160/3 145/161/3 151/165/3 150/166/3 
s 4
f 152/167/1 153/168/1 154/169/1 155/170/1 
s 8
f 156/171/19 157/172/9 158/173/19 159/174/19 
s 16
f 160/175/2 161/176/2 154/177/2 153/168/2 
s 32
f 161/176/3 162/178/3 155/179/3 154/177/3 
s 64
f 162/180/4 163/181/4 152/167/4 155/182/4 
s off
f 163/181/9 160/175/9 164/183/9 165/184/9 
f 160/175/9 153/168/9 166/185/9 164/183/9 
f 153/168/9 152/167/9 167/186/9 166/185/9 
f 152/167/9 163/181/9 165/184/9 167/186/9 
f 165/187/1 164/188/1 157/172/1 156/171/1 
f 164/189/20 166/190/20 158/173/20 157/172/20 
f 166/191/12 167/192/12 159/174/12 158/173/12 
f 167/193/2 165/194/2 156/171/2 159/174/2 
s 1
f 168/195/9 169/196/9 170/197/9 171/198/9 
s 4
f 172/167/1 173/168/1 174/169/1 175/170/1 
s 8
f 176/171/19 177/172/9 178/173/19 179/174/19 
s 16
f 180/175/2 181/176/2 174/177/2 173/168/2 
s 32
f 181/176/3 182/178/3 175/179/3 174/177/3 
s 64
f 182/180/4 183/181/4 172/167/4 175/182/4 
s off
f 183/181/9 180/175/9 184/183/9 185/184/9 
f 180/175/9 173/168/9 186/185/9 184/183/9 
f 173/168/9 172/167/9 187/186/9 186/185/9 
f 172/167/9 183/181/9 185/184/9 187/186/9 
f 185/187/1 184/188/1 177/172/1 176/171/1 
f 184/189/4 186/190/4 178/173/4 177/172/4 
f 186/191/12 187/192/12 179/174/12 178/173/12 
f 187/193/2 185/194/2 176/171/2 179/174/2 
s 1
f 188/195/9 189/196/9 190/197/9 191/198/9 
s 4
f 192/167/1 193/168/1 194/169/1 195/170/1 
s 8
f 196/171/19 197/172/9 198/173/19 199/174/19 
s 16
f 200/175/2 201/176/2 194/177/2 193/168/2 
s 32
f 201/176/3 202/178/3 195/179/3 194/177/3 
s 64
f 202/180/4 203/181/4 192/167/4 195/182/4 
s off
f 203/181/9 200/175/9 204/183/9 205/184/9 
f 200/175/9 193/168/9 206/185/9 204/183/9 
f 193/168/9 192/167/9 207/186/9 206/185/9 
f 192/167/9 203/181/9 205/184/9 207/186/9 
f 205/187/1 204/188/1 197/172/1 196/171/1 
f 204/189/4 206/190/4 198/173/4 197/172/4 
f 206/191/12 207/192/12 199/174/12 198/173/12 
f 207/193/2 205/194/2 196/171/2 199/174/2 
s 1
f 208/195/9 209/196/9 210/197/9 211/198/9 
s 4
f 212/167/1 213/168/1 214/169/1 215/170/1 
s 8
f 216/171/19 217/172/9 218/173/19 219/174/19 
s 16
f 220/175/2 221/176/2 214/177/2 213/168/2 
s 32
f 221/176/3 222/178/3 215/179/3 214/177/3 
s 64
f 222/180/4 223/181/4 212/167/4 215/182/4 
s off
f 223/181/9 220/175/9 224/183/9 225/184/9 
f 220/175/9 213/168/9 226/185/9 224/183/9 
f 213/168/9 212/167/9 227/186/9 226/185/9 
f 212/167/9 223/181/9 225/184/9 227/186/9 
f 225/187/1 224/188/1 217/172/1 216/171/1 
f 224/189/20 226/190/20 218/173/20 217/172/20 
f 226/191/12 227/192/12 219/174/12 218/173/12 
f 227/193/2 225/194/2 216/171/2 219/174/2 
s 1
f 228/195/9 229/196/9 230/197/9 231/198/9 
s 2
f 232/199/12 233/200/12 234/201/12 235/202/12 
s 4
f 236/203/1 237/204/1 238/205/1 239/206/1 
s 8
f 232/199/9 235/202/9 237/204/9 236/203/9 
s 16
f 235/202/2 234/207/2 238/208/2 237/204/2 
s 32
f 234/207/3 233/209/3 239/210/3 238/208/3 
s 64
f 233/211/4 232/199/4 236/203/4 239/212/4 
s 2
f 240/213/12 241/214/12 242/215/12 243/216/12 
s 8
f 240/213/21 243/216/21 244/217/21 245/218/21 
s 16
f 243/216/22 242/215/22 246/219/22 244/217/22 
s 32
f 242/215/23 241/214/23 247/220/23 246/219/23 
s 64
f 241/214/24 240/213/24 245/218/24 247/220/24 
s 2
f 248/213/12 249/214/12 250/215/12 251/216/12 
s 8
f 248/213/21 251/216/21 252/217/21 253/218/21 
s 16
f 251/216/22 250/215/22 254/219/22 252/217/22 
s 32
f 250/215/23 249/214/23 255/220/23 254/219/23 
s 64
f 249/214/24 248/213/24 253/218/24 255/220/24 
s 2
f 256/213/12 257/214/12 258/215/12 259/216/12 
s 8
f 256/213/21 259/216/21 260/217/21 261/218/21 
s 16
f 259/216/22 258/215/22 262/219/22 260/217/22 
s 32
f 258/215/23 257/214/23 263/220/23 262/219/23 
s 64
f 257/214/24 256/213/24 261/218/24 263/220/24 
s 2
f 264/213/12 265/214/12 266/215/12 267/216/12 
s 8
f 264/213/21 267/216/21 268/217/21 269/218/21 
s 16
f 267/216/22 266/215/22 270/219/22 268/217/22 
s 32
f 266/215/23 265/214/23 271/220/23 270/219/23 
s 64
f 265/214/24 264/213/24 269/218/24 271/220/24 
s 2
f 272/213/12 273/214/12 274/215/12 275/216/12 
s 8
f 272/213/21 275/216/21 276/217/21 277/218/21 
s 16
f 275/216/22 274/215/22 278/219/22 276/217/22 
s 32
f 274/215/23 273/214/23 279/220/23 278/219/23 
s 64
f 273/214/24 272/213/24 277/218/24 279/220/24 
s 2
f 280/213/12 281/214/12 282/215/12 283/216/12 
s 8
f 280/213/21 283/216/21 284/217/21 285/218/21 
s 16
f 283/216/22 282/215/22 286/219/22 284/217/22 
s 32
f 282/215/23 281/214/23 287/220/23 286/219/23 
s 64
f 281/214/24 280/213/24 285/218/24 287/220/24 
# 201 polygons - 10 triangles

